<svg height="123.317" viewBox="0 0 204.858 123.317" width="204.858" xmlns="http://www.w3.org/2000/svg" role="img" aria-label="Gymnasium Neusiedl Logo"><title>Gymnasium Neusiedl</title><g fill="#0c1418"><path d="m88.24 38.3h-5.129v-1.149c0-2.364-1-4.324-3.616-4.324-2.813 0-3.469 2.262-3.469 4.625 0 2.764.251 3.719 2.915 4.775l3.922 1.558c4.525 1.709 5.378 4.573 5.378 9.8 0 6.032-2.211 10.5-8.847 10.5a8.45 8.45 0 0 1 -8.746-8.485v-1.916h5.127v1.61a3.381 3.381 0 0 0 3.619 3.668c3.469 0 3.717-2.059 3.717-5.327 0-3.82-.45-4.424-2.964-5.429l-3.668-1.506c-4.423-1.81-5.579-4.727-5.579-9.2 0-5.428 2.915-9.8 8.8-9.8a8.384 8.384 0 0 1 8.545 8.091z" transform="translate(58.018 10.087)"/><path d="m39.885 27.921h4.927l7.739 21.562h.1v-21.562h5.125v35.786h-4.822l-7.84-21.507h-.1v21.51h-5.129z" transform="translate(46.814 10.167)"/><path d="m62.688 27.922h4.271l7.993 35.785h-5.129l-1.5-7.688h-6.992l-1.507 7.688h-5.13zm2.162 10.3h-.1l-2.515 12.969h5.125z" transform="translate(52.208 10.167)"/><path d="m150.227 38.088h5.127v35.785h-5.127z"/><path d="m110.445 55.664a8.294 8.294 0 1 1 -16.587 0v-27.743h5.127v27.241c0 2.514 1.359 3.72 3.168 3.72s3.166-1.206 3.166-3.72v-27.241h5.127z" transform="translate(66.471 10.167)"/><path d="m109.552 27.921h4.925l6.586 18.947h.1l6.537-18.947h4.977v35.786h-5.128v-21.761h-.1l-5.075 15.38h-2.565l-5.024-15.38h-.1v21.761h-5.129z" transform="translate(72.185 10.167)"/><path d="m39.821 55.047h3.1l4.863 13.553h.061v-13.553h3.225v22.5h-3.032l-4.932-13.528h-.061v13.526h-3.224z" transform="translate(46.791 20.046)"/><path d="m53.071 69.072v2.179a1.448 1.448 0 0 0 1.581 1.582c1.233 0 1.517-.915 1.58-1.612h3.224a4.916 4.916 0 0 1 -1.3 3.412 4.691 4.691 0 0 1 -3.507 1.424 4.584 4.584 0 0 1 -4.2-2.307 7.028 7.028 0 0 1 -.6-3.256v-5.277a7.02 7.02 0 0 1 .6-3.254 4.583 4.583 0 0 1 4.2-2.308 4.679 4.679 0 0 1 4.8 5v4.421zm0-2.529h3.161v-1.831c0-1.2-.6-1.832-1.58-1.832s-1.581.63-1.581 1.832z" transform="translate(50.445 21.724)"/><path d="m68.262 75.816h-3.223v-1.548h-.063a3.4 3.4 0 0 1 -3.031 1.739c-1.612 0-3.318-1.044-3.318-3.921v-12.292h3.222v11.094c0 1.168.567 1.9 1.58 1.9 1.2 0 1.61-.793 1.61-2.211v-10.783h3.224z" transform="translate(53.64 21.774)"/><path d="m73.631 64.333a1.589 1.589 0 0 0 -1.641-1.645 1.552 1.552 0 0 0 -1.58 1.614c0 .6.157 1.168 1.357 1.641l1.9.761a4.457 4.457 0 0 1 3.159 4.517 4.748 4.748 0 0 1 -4.8 4.836 4.666 4.666 0 0 1 -4.8-4.836h3.034c.127.885.537 1.8 1.739 1.8a1.745 1.745 0 0 0 1.8-1.737c0-.885-.381-1.486-1.612-1.959l-1.548-.567a4.56 4.56 0 0 1 -3.255-4.424 4.641 4.641 0 0 1 4.739-4.678 4.521 4.521 0 0 1 4.551 4.678z" transform="translate(56.767 21.724)"/><path d="m75.787 56.406h3.222v3.221h-3.222zm0 4.622h3.222v16.022h-3.222z" transform="translate(59.888 20.541)"/><path d="m83.107 69.072v2.179a1.449 1.449 0 0 0 1.582 1.582c1.232 0 1.514-.915 1.58-1.612h3.224a4.922 4.922 0 0 1 -1.3 3.412 4.7 4.7 0 0 1 -3.507 1.424 4.59 4.59 0 0 1 -4.2-2.307 7.065 7.065 0 0 1 -.6-3.256v-5.277a7.056 7.056 0 0 1 .6-3.254 4.589 4.589 0 0 1 4.2-2.308 4.681 4.681 0 0 1 4.8 5v4.421zm0-2.529h3.162v-1.831c0-1.2-.6-1.832-1.58-1.832s-1.582.63-1.582 1.832z" transform="translate(61.383 21.724)"/><path d="m95.078 76.091a3.625 3.625 0 0 1 -3.065 1.645 2.928 2.928 0 0 1 -2.813-1.518 7.272 7.272 0 0 1 -.537-3.445v-6.1c0-2.31.1-3.224.507-3.887a3.032 3.032 0 0 1 2.874-1.456 3.46 3.46 0 0 1 2.971 1.642h.063v-7.925h3.222v22.5h-3.222zm-3.191-3.761c0 1.3.473 2.183 1.578 2.183.982 0 1.612-.824 1.612-1.993v-6.225a1.63 1.63 0 0 0 -1.612-1.737c-1.23 0-1.578.884-1.578 1.9z" transform="translate(64.578 20.046)"/><path d="m97.533 55.047h3.221v17.981c0 1.2.351 1.546 1.582 1.671v3.037c-2.97 0-4.8-.761-4.8-4.488z" transform="translate(67.808 20.046)"/><path d="m61.991 21.453-7.039-20.653h5.429l4.124 14.226h.1l4.123-14.226h5.427l-7.036 20.653v15.13h-5.128z" transform="translate(52.302 .288)"/><path d="m70.905.8h4.929l6.581 18.95h.1l6.535-18.95h4.977v35.782h-5.127v-21.763h-.1l-5.078 15.381h-2.562l-5.027-15.381h-.1v21.763h-5.128z" transform="translate(58.112 .288)"/><path d="m40.074 8.747a8.6 8.6 0 1 1 17.189 0v1.809h-5.127v-1.809a3.47 3.47 0 1 0 -6.934 0v18.9a3.47 3.47 0 1 0 6.934 0v-6.737h-4.071v-4.524h9.2v11.259a8.6 8.6 0 1 1 -17.189 0z" transform="translate(46.883 -.001)"/></g><path d="m50.869 100.686h5.583v22.631h-5.583z" fill="#378017"/><path d="m41.641 100.686h5.583v22.631h-5.583z" fill="#e7e8e8"/><path d="m67.076 100.686h5.583v22.631h-5.583z" fill="#e7e8e8"/><path d="m60.091 100.686h3.345v22.631h-3.345z" fill="#7da67b"/><path d="m76.303 100.686h5.583v22.631h-5.583z" fill="#7da67b"/><path d="m16.212 100.844h5.583v22.32h-5.583z" fill="#e7e8e8"/><path d="m0 100.844h5.583v22.32h-5.583z" fill="#378017"/><path d="m9.227 100.844h3.345v22.32h-3.345z" fill="#7da67b"/><path d="m32.419 100.844h5.583v22.32h-5.583z" fill="#7da67b"/><path d="m25.434 100.844h3.345v22.32h-3.345z" fill="#e7e8e8"/></svg>